# xmcd
#
# Track frame offsets:
# 150
# 23560
# 46125
# 68165
# 94002
# 123515
# 166471
#
# Disc length: 2376 seconds
#
#
# Revision: 1
# Processed by: cddbd v1.5.2PL0 Copyright (c) Steve Scherf et al.
# Submitted via: FreeRIP 2.96 
#
DISCID=51094607
DTITLE=Vários - Coleção Caras Zen-Ilha do Paraíso
DYEAR=1900
DGENRE=
TTITLE0=Eletroboss-Ponta da Praia
TTITLE1=Gil Mahadeva-Bossa Japa
TTITLE2=Corciolli-Nave d'amore
TTITLE3=Gallo-Frencch Love
TTITLE4=Andrey Cechelero-Mar da Tranqüilidade
TTITLE5=Gallo-Planeta Água
TTITLE6=Dados
EXTD=
EXTT0=
EXTT1=
EXTT2=
EXTT3=
EXTT4=
EXTT5=
EXTT6=
PLAYORDER=
